<mxfile host="app.diagrams.net" modified="2023-08-07T17:27:00.946Z" agent="Mozilla/5.0 (Windows NT 10.0; Win64; x64) AppleWebKit/537.36 (KHTML, like Gecko) Chrome/115.0.0.0 Safari/537.36" etag="FwSHGhmCgjbek7QR0DCj" version="21.6.5" type="device">
  <diagram name="1 oldal" id="gh-fw1ELlZMGLN60_VYH">
    <mxGraphModel dx="1762" dy="1967" grid="1" gridSize="10" guides="1" tooltips="1" connect="1" arrows="1" fold="1" page="1" pageScale="1" pageWidth="827" pageHeight="1169" math="0" shadow="0">
      <root>
        <mxCell id="0" />
        <mxCell id="1" parent="0" />
        <mxCell id="afg4JcKS-O3uQv0_6ypz-95" value="" style="rounded=1;whiteSpace=wrap;html=1;" parent="1" vertex="1">
          <mxGeometry x="950" y="-60" width="670" height="270" as="geometry" />
        </mxCell>
        <mxCell id="afg4JcKS-O3uQv0_6ypz-34" value="" style="rounded=1;whiteSpace=wrap;html=1;" parent="1" vertex="1">
          <mxGeometry x="940" y="240" width="670" height="270" as="geometry" />
        </mxCell>
        <mxCell id="DMwIpfRLfWx51i2b7eNS-2" value="Cím" style="swimlane;fontStyle=1;align=center;verticalAlign=top;childLayout=stackLayout;horizontal=1;startSize=26;horizontalStack=0;resizeParent=1;resizeParentMax=0;resizeLast=0;collapsible=1;marginBottom=0;whiteSpace=wrap;html=1;" parent="1" vertex="1">
          <mxGeometry x="300" y="220" width="160" height="158" as="geometry" />
        </mxCell>
        <mxCell id="DMwIpfRLfWx51i2b7eNS-3" value="1-rendű cím&lt;br&gt;2-rendű cím&lt;br&gt;3-rendű cím" style="text;strokeColor=none;fillColor=none;align=left;verticalAlign=top;spacingLeft=4;spacingRight=4;overflow=hidden;rotatable=0;points=[[0,0.5],[1,0.5]];portConstraint=eastwest;whiteSpace=wrap;html=1;" parent="DMwIpfRLfWx51i2b7eNS-2" vertex="1">
          <mxGeometry y="26" width="160" height="54" as="geometry" />
        </mxCell>
        <mxCell id="DMwIpfRLfWx51i2b7eNS-4" value="" style="line;strokeWidth=1;fillColor=none;align=left;verticalAlign=middle;spacingTop=-1;spacingLeft=3;spacingRight=3;rotatable=0;labelPosition=right;points=[];portConstraint=eastwest;strokeColor=inherit;" parent="DMwIpfRLfWx51i2b7eNS-2" vertex="1">
          <mxGeometry y="80" width="160" height="8" as="geometry" />
        </mxCell>
        <mxCell id="DMwIpfRLfWx51i2b7eNS-5" value="Infók szabad szövegesen" style="text;strokeColor=none;fillColor=none;align=left;verticalAlign=top;spacingLeft=4;spacingRight=4;overflow=hidden;rotatable=0;points=[[0,0.5],[1,0.5]];portConstraint=eastwest;whiteSpace=wrap;html=1;" parent="DMwIpfRLfWx51i2b7eNS-2" vertex="1">
          <mxGeometry y="88" width="160" height="70" as="geometry" />
        </mxCell>
        <mxCell id="DMwIpfRLfWx51i2b7eNS-6" value="Keresésnél kihoz mindent, amiben benne van a keresett szó //Címek, Címkék, Szöveg&lt;br&gt;&quot;Kártyák&quot; között lehet válogatni //Be lehetne állítani, hogy Cím vagy Címke szerint legyen sorrendben, vagy ABC...&lt;br&gt;2 nézet: Böngészés és Keresés&lt;br&gt;Böngészés: Valamilyen sorrend alapján megjelenítenített kártyák, Létrehozni itt lehet&lt;br&gt;Keresés: Szűrő funkciók, Utolsó keresések (lehet inkább a Böngészésnél)" style="text;html=1;align=center;verticalAlign=middle;resizable=0;points=[];autosize=1;strokeColor=none;fillColor=none;" parent="1" vertex="1">
          <mxGeometry x="40" y="55" width="630" height="90" as="geometry" />
        </mxCell>
        <mxCell id="DMwIpfRLfWx51i2b7eNS-8" value="Card" style="swimlane;fontStyle=1;align=center;verticalAlign=top;childLayout=stackLayout;horizontal=1;startSize=26;horizontalStack=0;resizeParent=1;resizeParentMax=0;resizeLast=0;collapsible=1;marginBottom=0;whiteSpace=wrap;html=1;" parent="1" vertex="1">
          <mxGeometry x="240" y="640" width="160" height="178" as="geometry" />
        </mxCell>
        <mxCell id="DMwIpfRLfWx51i2b7eNS-9" value="//ID {PK}" style="text;strokeColor=none;fillColor=none;align=left;verticalAlign=top;spacingLeft=4;spacingRight=4;overflow=hidden;rotatable=0;points=[[0,0.5],[1,0.5]];portConstraint=eastwest;whiteSpace=wrap;html=1;" parent="DMwIpfRLfWx51i2b7eNS-8" vertex="1">
          <mxGeometry y="26" width="160" height="24" as="geometry" />
        </mxCell>
        <mxCell id="DMwIpfRLfWx51i2b7eNS-10" value="" style="line;strokeWidth=1;fillColor=none;align=left;verticalAlign=middle;spacingTop=-1;spacingLeft=3;spacingRight=3;rotatable=0;labelPosition=right;points=[];portConstraint=eastwest;strokeColor=inherit;" parent="DMwIpfRLfWx51i2b7eNS-8" vertex="1">
          <mxGeometry y="50" width="160" height="8" as="geometry" />
        </mxCell>
        <mxCell id="DMwIpfRLfWx51i2b7eNS-12" value="Title //Primary?" style="text;strokeColor=none;fillColor=none;align=left;verticalAlign=top;spacingLeft=4;spacingRight=4;overflow=hidden;rotatable=0;points=[[0,0.5],[1,0.5]];portConstraint=eastwest;whiteSpace=wrap;html=1;" parent="DMwIpfRLfWx51i2b7eNS-8" vertex="1">
          <mxGeometry y="58" width="160" height="24" as="geometry" />
        </mxCell>
        <mxCell id="DMwIpfRLfWx51i2b7eNS-13" value="Tag_1&lt;br&gt;" style="text;strokeColor=none;fillColor=none;align=left;verticalAlign=top;spacingLeft=4;spacingRight=4;overflow=hidden;rotatable=0;points=[[0,0.5],[1,0.5]];portConstraint=eastwest;whiteSpace=wrap;html=1;" parent="DMwIpfRLfWx51i2b7eNS-8" vertex="1">
          <mxGeometry y="82" width="160" height="24" as="geometry" />
        </mxCell>
        <mxCell id="-GgXu58olFXfFAZ6Vi5N-1" value="Tag_2" style="text;strokeColor=none;fillColor=none;align=left;verticalAlign=top;spacingLeft=4;spacingRight=4;overflow=hidden;rotatable=0;points=[[0,0.5],[1,0.5]];portConstraint=eastwest;whiteSpace=wrap;html=1;" parent="DMwIpfRLfWx51i2b7eNS-8" vertex="1">
          <mxGeometry y="106" width="160" height="24" as="geometry" />
        </mxCell>
        <mxCell id="-GgXu58olFXfFAZ6Vi5N-2" value="Tag_3" style="text;strokeColor=none;fillColor=none;align=left;verticalAlign=top;spacingLeft=4;spacingRight=4;overflow=hidden;rotatable=0;points=[[0,0.5],[1,0.5]];portConstraint=eastwest;whiteSpace=wrap;html=1;" parent="DMwIpfRLfWx51i2b7eNS-8" vertex="1">
          <mxGeometry y="130" width="160" height="24" as="geometry" />
        </mxCell>
        <mxCell id="DMwIpfRLfWx51i2b7eNS-11" value="Text" style="text;strokeColor=none;fillColor=none;align=left;verticalAlign=top;spacingLeft=4;spacingRight=4;overflow=hidden;rotatable=0;points=[[0,0.5],[1,0.5]];portConstraint=eastwest;whiteSpace=wrap;html=1;" parent="DMwIpfRLfWx51i2b7eNS-8" vertex="1">
          <mxGeometry y="154" width="160" height="24" as="geometry" />
        </mxCell>
        <mxCell id="DMwIpfRLfWx51i2b7eNS-20" value="List of Titles and Sub-Titles" style="html=1;whiteSpace=wrap;" parent="1" vertex="1">
          <mxGeometry x="590" y="630" width="110" height="50" as="geometry" />
        </mxCell>
        <mxCell id="DMwIpfRLfWx51i2b7eNS-22" value="Tags" style="swimlane;fontStyle=1;align=center;verticalAlign=top;childLayout=stackLayout;horizontal=1;startSize=26;horizontalStack=0;resizeParent=1;resizeParentMax=0;resizeLast=0;collapsible=1;marginBottom=0;whiteSpace=wrap;html=1;" parent="1" vertex="1">
          <mxGeometry x="510" y="780" width="160" height="106" as="geometry" />
        </mxCell>
        <mxCell id="DMwIpfRLfWx51i2b7eNS-23" value="ID" style="text;strokeColor=none;fillColor=none;align=left;verticalAlign=top;spacingLeft=4;spacingRight=4;overflow=hidden;rotatable=0;points=[[0,0.5],[1,0.5]];portConstraint=eastwest;whiteSpace=wrap;html=1;" parent="DMwIpfRLfWx51i2b7eNS-22" vertex="1">
          <mxGeometry y="26" width="160" height="24" as="geometry" />
        </mxCell>
        <mxCell id="DMwIpfRLfWx51i2b7eNS-24" value="" style="line;strokeWidth=1;fillColor=none;align=left;verticalAlign=middle;spacingTop=-1;spacingLeft=3;spacingRight=3;rotatable=0;labelPosition=right;points=[];portConstraint=eastwest;strokeColor=inherit;" parent="DMwIpfRLfWx51i2b7eNS-22" vertex="1">
          <mxGeometry y="50" width="160" height="8" as="geometry" />
        </mxCell>
        <mxCell id="DMwIpfRLfWx51i2b7eNS-25" value="Title //Primary?" style="text;strokeColor=none;fillColor=none;align=left;verticalAlign=top;spacingLeft=4;spacingRight=4;overflow=hidden;rotatable=0;points=[[0,0.5],[1,0.5]];portConstraint=eastwest;whiteSpace=wrap;html=1;" parent="DMwIpfRLfWx51i2b7eNS-22" vertex="1">
          <mxGeometry y="58" width="160" height="24" as="geometry" />
        </mxCell>
        <mxCell id="DMwIpfRLfWx51i2b7eNS-26" value="Sub-Title" style="text;strokeColor=none;fillColor=none;align=left;verticalAlign=top;spacingLeft=4;spacingRight=4;overflow=hidden;rotatable=0;points=[[0,0.5],[1,0.5]];portConstraint=eastwest;whiteSpace=wrap;html=1;" parent="DMwIpfRLfWx51i2b7eNS-22" vertex="1">
          <mxGeometry y="82" width="160" height="24" as="geometry" />
        </mxCell>
        <mxCell id="DMwIpfRLfWx51i2b7eNS-28" value="Keresés hatékonysága? --&amp;gt;Cím/Címke alapú szűrésnél lehet fontos" style="text;html=1;align=center;verticalAlign=middle;resizable=0;points=[];autosize=1;strokeColor=none;fillColor=none;" parent="1" vertex="1">
          <mxGeometry x="355" y="598" width="380" height="30" as="geometry" />
        </mxCell>
        <mxCell id="ofAxlslboXFNQINm9dO5-1" value="(Kártya)&amp;nbsp;" style="text;html=1;align=center;verticalAlign=middle;resizable=0;points=[];autosize=1;strokeColor=none;fillColor=none;" parent="1" vertex="1">
          <mxGeometry x="344" y="190" width="70" height="30" as="geometry" />
        </mxCell>
        <mxCell id="ofAxlslboXFNQINm9dO5-2" value="Autentikáció? (max egyszerű jelszó)" style="text;html=1;align=center;verticalAlign=middle;resizable=0;points=[];autosize=1;strokeColor=none;fillColor=none;" parent="1" vertex="1">
          <mxGeometry x="490" y="198" width="220" height="30" as="geometry" />
        </mxCell>
        <mxCell id="ofAxlslboXFNQINm9dO5-3" value="Szűrési paraméterek:&lt;br&gt;Cím, Címkék, Minden&lt;br&gt;Sorrend állítható" style="text;html=1;align=center;verticalAlign=middle;resizable=0;points=[];autosize=1;strokeColor=none;fillColor=none;" parent="1" vertex="1">
          <mxGeometry x="70" y="220" width="140" height="60" as="geometry" />
        </mxCell>
        <mxCell id="afg4JcKS-O3uQv0_6ypz-1" value="Cím" style="swimlane;fontStyle=1;align=center;verticalAlign=top;childLayout=stackLayout;horizontal=1;startSize=26;horizontalStack=0;resizeParent=1;resizeParentMax=0;resizeLast=0;collapsible=1;marginBottom=0;whiteSpace=wrap;html=1;" parent="1" vertex="1">
          <mxGeometry x="1030" y="390" width="160" height="88" as="geometry" />
        </mxCell>
        <mxCell id="afg4JcKS-O3uQv0_6ypz-2" value="1-rendű cím&lt;br&gt;2-rendű cím&lt;br&gt;3-rendű cím" style="text;strokeColor=none;fillColor=none;align=left;verticalAlign=top;spacingLeft=4;spacingRight=4;overflow=hidden;rotatable=0;points=[[0,0.5],[1,0.5]];portConstraint=eastwest;whiteSpace=wrap;html=1;" parent="afg4JcKS-O3uQv0_6ypz-1" vertex="1">
          <mxGeometry y="26" width="160" height="54" as="geometry" />
        </mxCell>
        <mxCell id="afg4JcKS-O3uQv0_6ypz-3" value="" style="line;strokeWidth=1;fillColor=none;align=left;verticalAlign=middle;spacingTop=-1;spacingLeft=3;spacingRight=3;rotatable=0;labelPosition=right;points=[];portConstraint=eastwest;strokeColor=inherit;" parent="afg4JcKS-O3uQv0_6ypz-1" vertex="1">
          <mxGeometry y="80" width="160" height="8" as="geometry" />
        </mxCell>
        <mxCell id="afg4JcKS-O3uQv0_6ypz-13" value="Cím" style="swimlane;fontStyle=1;align=center;verticalAlign=top;childLayout=stackLayout;horizontal=1;startSize=26;horizontalStack=0;resizeParent=1;resizeParentMax=0;resizeLast=0;collapsible=1;marginBottom=0;whiteSpace=wrap;html=1;" parent="1" vertex="1">
          <mxGeometry x="1190" y="390" width="160" height="88" as="geometry" />
        </mxCell>
        <mxCell id="afg4JcKS-O3uQv0_6ypz-14" value="1-rendű cím&lt;br&gt;2-rendű cím&lt;br&gt;3-rendű cím" style="text;strokeColor=none;fillColor=none;align=left;verticalAlign=top;spacingLeft=4;spacingRight=4;overflow=hidden;rotatable=0;points=[[0,0.5],[1,0.5]];portConstraint=eastwest;whiteSpace=wrap;html=1;" parent="afg4JcKS-O3uQv0_6ypz-13" vertex="1">
          <mxGeometry y="26" width="160" height="54" as="geometry" />
        </mxCell>
        <mxCell id="afg4JcKS-O3uQv0_6ypz-15" value="" style="line;strokeWidth=1;fillColor=none;align=left;verticalAlign=middle;spacingTop=-1;spacingLeft=3;spacingRight=3;rotatable=0;labelPosition=right;points=[];portConstraint=eastwest;strokeColor=inherit;" parent="afg4JcKS-O3uQv0_6ypz-13" vertex="1">
          <mxGeometry y="80" width="160" height="8" as="geometry" />
        </mxCell>
        <mxCell id="afg4JcKS-O3uQv0_6ypz-16" value="Cím" style="swimlane;fontStyle=1;align=center;verticalAlign=top;childLayout=stackLayout;horizontal=1;startSize=26;horizontalStack=0;resizeParent=1;resizeParentMax=0;resizeLast=0;collapsible=1;marginBottom=0;whiteSpace=wrap;html=1;" parent="1" vertex="1">
          <mxGeometry x="1350" y="390" width="160" height="88" as="geometry" />
        </mxCell>
        <mxCell id="afg4JcKS-O3uQv0_6ypz-17" value="1-rendű cím&lt;br&gt;2-rendű cím&lt;br&gt;3-rendű cím" style="text;strokeColor=none;fillColor=none;align=left;verticalAlign=top;spacingLeft=4;spacingRight=4;overflow=hidden;rotatable=0;points=[[0,0.5],[1,0.5]];portConstraint=eastwest;whiteSpace=wrap;html=1;" parent="afg4JcKS-O3uQv0_6ypz-16" vertex="1">
          <mxGeometry y="26" width="160" height="54" as="geometry" />
        </mxCell>
        <mxCell id="afg4JcKS-O3uQv0_6ypz-18" value="" style="line;strokeWidth=1;fillColor=none;align=left;verticalAlign=middle;spacingTop=-1;spacingLeft=3;spacingRight=3;rotatable=0;labelPosition=right;points=[];portConstraint=eastwest;strokeColor=inherit;" parent="afg4JcKS-O3uQv0_6ypz-16" vertex="1">
          <mxGeometry y="80" width="160" height="8" as="geometry" />
        </mxCell>
        <mxCell id="afg4JcKS-O3uQv0_6ypz-19" value="Nézet" style="rounded=0;whiteSpace=wrap;html=1;" parent="1" vertex="1">
          <mxGeometry x="1017.5" y="326.5" width="80" height="30" as="geometry" />
        </mxCell>
        <mxCell id="afg4JcKS-O3uQv0_6ypz-20" value="Kereső" style="whiteSpace=wrap;html=1;" parent="1" vertex="1">
          <mxGeometry x="1167.5" y="256.5" width="120" height="40" as="geometry" />
        </mxCell>
        <mxCell id="afg4JcKS-O3uQv0_6ypz-22" value="Főcím" style="ellipse;whiteSpace=wrap;html=1;" parent="1" vertex="1">
          <mxGeometry x="1317.5" y="266.5" width="50" height="50" as="geometry" />
        </mxCell>
        <mxCell id="afg4JcKS-O3uQv0_6ypz-23" value="1. kateg." style="ellipse;whiteSpace=wrap;html=1;" parent="1" vertex="1">
          <mxGeometry x="1367.5" y="266.5" width="50" height="50" as="geometry" />
        </mxCell>
        <mxCell id="afg4JcKS-O3uQv0_6ypz-24" value="2. kateg." style="ellipse;whiteSpace=wrap;html=1;" parent="1" vertex="1">
          <mxGeometry x="1317.5" y="316.5" width="50" height="50" as="geometry" />
        </mxCell>
        <mxCell id="afg4JcKS-O3uQv0_6ypz-25" value="3. kateg." style="ellipse;whiteSpace=wrap;html=1;" parent="1" vertex="1">
          <mxGeometry x="1367.5" y="316.5" width="50" height="50" as="geometry" />
        </mxCell>
        <mxCell id="afg4JcKS-O3uQv0_6ypz-26" value="Tartalom" style="ellipse;whiteSpace=wrap;html=1;" parent="1" vertex="1">
          <mxGeometry x="1417.5" y="286.5" width="50" height="50" as="geometry" />
        </mxCell>
        <mxCell id="afg4JcKS-O3uQv0_6ypz-28" value="Rendezés" style="rounded=0;whiteSpace=wrap;html=1;" parent="1" vertex="1">
          <mxGeometry x="1107.5" y="326.5" width="80" height="30" as="geometry" />
        </mxCell>
        <mxCell id="afg4JcKS-O3uQv0_6ypz-29" value="//Legördülő menü" style="text;html=1;align=center;verticalAlign=middle;resizable=0;points=[];autosize=1;strokeColor=none;fillColor=none;" parent="1" vertex="1">
          <mxGeometry x="1097.5" y="306.5" width="120" height="30" as="geometry" />
        </mxCell>
        <mxCell id="afg4JcKS-O3uQv0_6ypz-30" value="//Összes, kártyás" style="text;html=1;align=center;verticalAlign=middle;resizable=0;points=[];autosize=1;strokeColor=none;fillColor=none;" parent="1" vertex="1">
          <mxGeometry x="987.5" y="306.5" width="120" height="30" as="geometry" />
        </mxCell>
        <mxCell id="afg4JcKS-O3uQv0_6ypz-31" value="//Keresés hatókörének kijelölése" style="text;html=1;align=center;verticalAlign=middle;resizable=0;points=[];autosize=1;strokeColor=none;fillColor=none;" parent="1" vertex="1">
          <mxGeometry x="1292.5" y="231.5" width="200" height="30" as="geometry" />
        </mxCell>
        <mxCell id="afg4JcKS-O3uQv0_6ypz-32" value="Létrehozás" style="rounded=0;whiteSpace=wrap;html=1;" parent="1" vertex="1">
          <mxGeometry x="1207.5" y="326.5" width="80" height="30" as="geometry" />
        </mxCell>
        <mxCell id="afg4JcKS-O3uQv0_6ypz-35" value="&lt;font style=&quot;font-size: 14px;&quot;&gt;Főoldal kártyás nézet&lt;/font&gt;" style="text;html=1;align=center;verticalAlign=middle;resizable=0;points=[];autosize=1;strokeColor=none;fillColor=none;" parent="1" vertex="1">
          <mxGeometry x="1215" y="210" width="160" height="30" as="geometry" />
        </mxCell>
        <mxCell id="afg4JcKS-O3uQv0_6ypz-54" value="" style="rounded=1;whiteSpace=wrap;html=1;" parent="1" vertex="1">
          <mxGeometry x="950" y="580" width="660" height="355" as="geometry" />
        </mxCell>
        <mxCell id="afg4JcKS-O3uQv0_6ypz-55" value="Cím" style="swimlane;fontStyle=1;align=center;verticalAlign=top;childLayout=stackLayout;horizontal=1;startSize=26;horizontalStack=0;resizeParent=1;resizeParentMax=0;resizeLast=0;collapsible=1;marginBottom=0;whiteSpace=wrap;html=1;" parent="1" vertex="1">
          <mxGeometry x="960" y="735" width="160" height="88" as="geometry" />
        </mxCell>
        <mxCell id="afg4JcKS-O3uQv0_6ypz-56" value="1-rendű cím&lt;br&gt;2-rendű cím&lt;br&gt;3-rendű cím" style="text;strokeColor=none;fillColor=none;align=left;verticalAlign=top;spacingLeft=4;spacingRight=4;overflow=hidden;rotatable=0;points=[[0,0.5],[1,0.5]];portConstraint=eastwest;whiteSpace=wrap;html=1;" parent="afg4JcKS-O3uQv0_6ypz-55" vertex="1">
          <mxGeometry y="26" width="160" height="54" as="geometry" />
        </mxCell>
        <mxCell id="afg4JcKS-O3uQv0_6ypz-57" value="" style="line;strokeWidth=1;fillColor=none;align=left;verticalAlign=middle;spacingTop=-1;spacingLeft=3;spacingRight=3;rotatable=0;labelPosition=right;points=[];portConstraint=eastwest;strokeColor=inherit;" parent="afg4JcKS-O3uQv0_6ypz-55" vertex="1">
          <mxGeometry y="80" width="160" height="8" as="geometry" />
        </mxCell>
        <mxCell id="afg4JcKS-O3uQv0_6ypz-58" value="Cím" style="swimlane;fontStyle=1;align=center;verticalAlign=top;childLayout=stackLayout;horizontal=1;startSize=26;horizontalStack=0;resizeParent=1;resizeParentMax=0;resizeLast=0;collapsible=1;marginBottom=0;whiteSpace=wrap;html=1;" parent="1" vertex="1">
          <mxGeometry x="1120" y="735" width="160" height="88" as="geometry" />
        </mxCell>
        <mxCell id="afg4JcKS-O3uQv0_6ypz-59" value="1-rendű cím&lt;br&gt;2-rendű cím&lt;br&gt;3-rendű cím" style="text;strokeColor=none;fillColor=none;align=left;verticalAlign=top;spacingLeft=4;spacingRight=4;overflow=hidden;rotatable=0;points=[[0,0.5],[1,0.5]];portConstraint=eastwest;whiteSpace=wrap;html=1;" parent="afg4JcKS-O3uQv0_6ypz-58" vertex="1">
          <mxGeometry y="26" width="160" height="54" as="geometry" />
        </mxCell>
        <mxCell id="afg4JcKS-O3uQv0_6ypz-60" value="" style="line;strokeWidth=1;fillColor=none;align=left;verticalAlign=middle;spacingTop=-1;spacingLeft=3;spacingRight=3;rotatable=0;labelPosition=right;points=[];portConstraint=eastwest;strokeColor=inherit;" parent="afg4JcKS-O3uQv0_6ypz-58" vertex="1">
          <mxGeometry y="80" width="160" height="8" as="geometry" />
        </mxCell>
        <mxCell id="afg4JcKS-O3uQv0_6ypz-61" value="Cím" style="swimlane;fontStyle=1;align=center;verticalAlign=top;childLayout=stackLayout;horizontal=1;startSize=26;horizontalStack=0;resizeParent=1;resizeParentMax=0;resizeLast=0;collapsible=1;marginBottom=0;whiteSpace=wrap;html=1;" parent="1" vertex="1">
          <mxGeometry x="1280" y="735" width="160" height="88" as="geometry" />
        </mxCell>
        <mxCell id="afg4JcKS-O3uQv0_6ypz-62" value="1-rendű cím&lt;br&gt;2-rendű cím&lt;br&gt;3-rendű cím" style="text;strokeColor=none;fillColor=none;align=left;verticalAlign=top;spacingLeft=4;spacingRight=4;overflow=hidden;rotatable=0;points=[[0,0.5],[1,0.5]];portConstraint=eastwest;whiteSpace=wrap;html=1;" parent="afg4JcKS-O3uQv0_6ypz-61" vertex="1">
          <mxGeometry y="26" width="160" height="54" as="geometry" />
        </mxCell>
        <mxCell id="afg4JcKS-O3uQv0_6ypz-63" value="" style="line;strokeWidth=1;fillColor=none;align=left;verticalAlign=middle;spacingTop=-1;spacingLeft=3;spacingRight=3;rotatable=0;labelPosition=right;points=[];portConstraint=eastwest;strokeColor=inherit;" parent="afg4JcKS-O3uQv0_6ypz-61" vertex="1">
          <mxGeometry y="80" width="160" height="8" as="geometry" />
        </mxCell>
        <mxCell id="afg4JcKS-O3uQv0_6ypz-64" value="Nézet" style="rounded=0;whiteSpace=wrap;html=1;" parent="1" vertex="1">
          <mxGeometry x="1030" y="670" width="80" height="30" as="geometry" />
        </mxCell>
        <mxCell id="afg4JcKS-O3uQv0_6ypz-65" value="Kereső" style="whiteSpace=wrap;html=1;" parent="1" vertex="1">
          <mxGeometry x="1180" y="600" width="120" height="40" as="geometry" />
        </mxCell>
        <mxCell id="afg4JcKS-O3uQv0_6ypz-66" value="Főcím" style="ellipse;whiteSpace=wrap;html=1;" parent="1" vertex="1">
          <mxGeometry x="1330" y="610" width="50" height="50" as="geometry" />
        </mxCell>
        <mxCell id="afg4JcKS-O3uQv0_6ypz-67" value="1. kateg." style="ellipse;whiteSpace=wrap;html=1;" parent="1" vertex="1">
          <mxGeometry x="1380" y="610" width="50" height="50" as="geometry" />
        </mxCell>
        <mxCell id="afg4JcKS-O3uQv0_6ypz-68" value="2. kateg." style="ellipse;whiteSpace=wrap;html=1;" parent="1" vertex="1">
          <mxGeometry x="1330" y="660" width="50" height="50" as="geometry" />
        </mxCell>
        <mxCell id="afg4JcKS-O3uQv0_6ypz-69" value="3. kateg." style="ellipse;whiteSpace=wrap;html=1;" parent="1" vertex="1">
          <mxGeometry x="1380" y="660" width="50" height="50" as="geometry" />
        </mxCell>
        <mxCell id="afg4JcKS-O3uQv0_6ypz-70" value="Tartalom" style="ellipse;whiteSpace=wrap;html=1;" parent="1" vertex="1">
          <mxGeometry x="1430" y="630" width="50" height="50" as="geometry" />
        </mxCell>
        <mxCell id="afg4JcKS-O3uQv0_6ypz-71" value="Rendezés" style="rounded=0;whiteSpace=wrap;html=1;" parent="1" vertex="1">
          <mxGeometry x="1120" y="670" width="80" height="30" as="geometry" />
        </mxCell>
        <mxCell id="afg4JcKS-O3uQv0_6ypz-72" value="//Legördülő menü" style="text;html=1;align=center;verticalAlign=middle;resizable=0;points=[];autosize=1;strokeColor=none;fillColor=none;" parent="1" vertex="1">
          <mxGeometry x="1110" y="650" width="120" height="30" as="geometry" />
        </mxCell>
        <mxCell id="afg4JcKS-O3uQv0_6ypz-73" value="//Összes, kártyás" style="text;html=1;align=center;verticalAlign=middle;resizable=0;points=[];autosize=1;strokeColor=none;fillColor=none;" parent="1" vertex="1">
          <mxGeometry x="1000" y="650" width="120" height="30" as="geometry" />
        </mxCell>
        <mxCell id="afg4JcKS-O3uQv0_6ypz-74" value="//Keresés hatókörének kijelölése" style="text;html=1;align=center;verticalAlign=middle;resizable=0;points=[];autosize=1;strokeColor=none;fillColor=none;" parent="1" vertex="1">
          <mxGeometry x="1305" y="575" width="200" height="30" as="geometry" />
        </mxCell>
        <mxCell id="afg4JcKS-O3uQv0_6ypz-75" value="Létrehozás" style="rounded=0;whiteSpace=wrap;html=1;" parent="1" vertex="1">
          <mxGeometry x="1220" y="670" width="80" height="30" as="geometry" />
        </mxCell>
        <mxCell id="afg4JcKS-O3uQv0_6ypz-76" value="&lt;font style=&quot;font-size: 14px;&quot;&gt;Főoldal összes nézet&lt;/font&gt;" style="text;html=1;align=center;verticalAlign=middle;resizable=0;points=[];autosize=1;strokeColor=none;fillColor=none;" parent="1" vertex="1">
          <mxGeometry x="1215" y="550" width="160" height="30" as="geometry" />
        </mxCell>
        <mxCell id="afg4JcKS-O3uQv0_6ypz-77" value="Cím" style="swimlane;fontStyle=1;align=center;verticalAlign=top;childLayout=stackLayout;horizontal=1;startSize=26;horizontalStack=0;resizeParent=1;resizeParentMax=0;resizeLast=0;collapsible=1;marginBottom=0;whiteSpace=wrap;html=1;" parent="1" vertex="1">
          <mxGeometry x="960" y="823" width="160" height="88" as="geometry" />
        </mxCell>
        <mxCell id="afg4JcKS-O3uQv0_6ypz-78" value="1-rendű cím&lt;br&gt;2-rendű cím&lt;br&gt;3-rendű cím" style="text;strokeColor=none;fillColor=none;align=left;verticalAlign=top;spacingLeft=4;spacingRight=4;overflow=hidden;rotatable=0;points=[[0,0.5],[1,0.5]];portConstraint=eastwest;whiteSpace=wrap;html=1;" parent="afg4JcKS-O3uQv0_6ypz-77" vertex="1">
          <mxGeometry y="26" width="160" height="54" as="geometry" />
        </mxCell>
        <mxCell id="afg4JcKS-O3uQv0_6ypz-79" value="" style="line;strokeWidth=1;fillColor=none;align=left;verticalAlign=middle;spacingTop=-1;spacingLeft=3;spacingRight=3;rotatable=0;labelPosition=right;points=[];portConstraint=eastwest;strokeColor=inherit;" parent="afg4JcKS-O3uQv0_6ypz-77" vertex="1">
          <mxGeometry y="80" width="160" height="8" as="geometry" />
        </mxCell>
        <mxCell id="afg4JcKS-O3uQv0_6ypz-80" value="Cím" style="swimlane;fontStyle=1;align=center;verticalAlign=top;childLayout=stackLayout;horizontal=1;startSize=26;horizontalStack=0;resizeParent=1;resizeParentMax=0;resizeLast=0;collapsible=1;marginBottom=0;whiteSpace=wrap;html=1;" parent="1" vertex="1">
          <mxGeometry x="1120" y="823" width="160" height="88" as="geometry" />
        </mxCell>
        <mxCell id="afg4JcKS-O3uQv0_6ypz-81" value="1-rendű cím&lt;br&gt;2-rendű cím&lt;br&gt;3-rendű cím" style="text;strokeColor=none;fillColor=none;align=left;verticalAlign=top;spacingLeft=4;spacingRight=4;overflow=hidden;rotatable=0;points=[[0,0.5],[1,0.5]];portConstraint=eastwest;whiteSpace=wrap;html=1;" parent="afg4JcKS-O3uQv0_6ypz-80" vertex="1">
          <mxGeometry y="26" width="160" height="54" as="geometry" />
        </mxCell>
        <mxCell id="afg4JcKS-O3uQv0_6ypz-82" value="" style="line;strokeWidth=1;fillColor=none;align=left;verticalAlign=middle;spacingTop=-1;spacingLeft=3;spacingRight=3;rotatable=0;labelPosition=right;points=[];portConstraint=eastwest;strokeColor=inherit;" parent="afg4JcKS-O3uQv0_6ypz-80" vertex="1">
          <mxGeometry y="80" width="160" height="8" as="geometry" />
        </mxCell>
        <mxCell id="afg4JcKS-O3uQv0_6ypz-83" value="Cím" style="swimlane;fontStyle=1;align=center;verticalAlign=top;childLayout=stackLayout;horizontal=1;startSize=26;horizontalStack=0;resizeParent=1;resizeParentMax=0;resizeLast=0;collapsible=1;marginBottom=0;whiteSpace=wrap;html=1;" parent="1" vertex="1">
          <mxGeometry x="1280" y="823" width="160" height="88" as="geometry" />
        </mxCell>
        <mxCell id="afg4JcKS-O3uQv0_6ypz-84" value="1-rendű cím&lt;br&gt;2-rendű cím&lt;br&gt;3-rendű cím" style="text;strokeColor=none;fillColor=none;align=left;verticalAlign=top;spacingLeft=4;spacingRight=4;overflow=hidden;rotatable=0;points=[[0,0.5],[1,0.5]];portConstraint=eastwest;whiteSpace=wrap;html=1;" parent="afg4JcKS-O3uQv0_6ypz-83" vertex="1">
          <mxGeometry y="26" width="160" height="54" as="geometry" />
        </mxCell>
        <mxCell id="afg4JcKS-O3uQv0_6ypz-85" value="" style="line;strokeWidth=1;fillColor=none;align=left;verticalAlign=middle;spacingTop=-1;spacingLeft=3;spacingRight=3;rotatable=0;labelPosition=right;points=[];portConstraint=eastwest;strokeColor=inherit;" parent="afg4JcKS-O3uQv0_6ypz-83" vertex="1">
          <mxGeometry y="80" width="160" height="8" as="geometry" />
        </mxCell>
        <mxCell id="afg4JcKS-O3uQv0_6ypz-86" value="" style="shape=flexArrow;endArrow=classic;html=1;rounded=0;" parent="1" edge="1">
          <mxGeometry width="50" height="50" relative="1" as="geometry">
            <mxPoint x="1020" y="430" as="sourcePoint" />
            <mxPoint x="960" y="430" as="targetPoint" />
          </mxGeometry>
        </mxCell>
        <mxCell id="afg4JcKS-O3uQv0_6ypz-87" value="" style="shape=flexArrow;endArrow=classic;html=1;rounded=0;" parent="1" edge="1">
          <mxGeometry width="50" height="50" relative="1" as="geometry">
            <mxPoint x="1520" y="434" as="sourcePoint" />
            <mxPoint x="1580" y="434" as="targetPoint" />
          </mxGeometry>
        </mxCell>
        <mxCell id="afg4JcKS-O3uQv0_6ypz-88" value="Cím" style="swimlane;fontStyle=1;align=center;verticalAlign=top;childLayout=stackLayout;horizontal=1;startSize=26;horizontalStack=0;resizeParent=1;resizeParentMax=0;resizeLast=0;collapsible=1;marginBottom=0;whiteSpace=wrap;html=1;" parent="1" vertex="1">
          <mxGeometry x="1440" y="735" width="160" height="88" as="geometry" />
        </mxCell>
        <mxCell id="afg4JcKS-O3uQv0_6ypz-89" value="1-rendű cím&lt;br&gt;2-rendű cím&lt;br&gt;3-rendű cím" style="text;strokeColor=none;fillColor=none;align=left;verticalAlign=top;spacingLeft=4;spacingRight=4;overflow=hidden;rotatable=0;points=[[0,0.5],[1,0.5]];portConstraint=eastwest;whiteSpace=wrap;html=1;" parent="afg4JcKS-O3uQv0_6ypz-88" vertex="1">
          <mxGeometry y="26" width="160" height="54" as="geometry" />
        </mxCell>
        <mxCell id="afg4JcKS-O3uQv0_6ypz-90" value="" style="line;strokeWidth=1;fillColor=none;align=left;verticalAlign=middle;spacingTop=-1;spacingLeft=3;spacingRight=3;rotatable=0;labelPosition=right;points=[];portConstraint=eastwest;strokeColor=inherit;" parent="afg4JcKS-O3uQv0_6ypz-88" vertex="1">
          <mxGeometry y="80" width="160" height="8" as="geometry" />
        </mxCell>
        <mxCell id="afg4JcKS-O3uQv0_6ypz-91" value="Cím" style="swimlane;fontStyle=1;align=center;verticalAlign=top;childLayout=stackLayout;horizontal=1;startSize=26;horizontalStack=0;resizeParent=1;resizeParentMax=0;resizeLast=0;collapsible=1;marginBottom=0;whiteSpace=wrap;html=1;" parent="1" vertex="1">
          <mxGeometry x="1440" y="823" width="160" height="88" as="geometry" />
        </mxCell>
        <mxCell id="afg4JcKS-O3uQv0_6ypz-92" value="1-rendű cím&lt;br&gt;2-rendű cím&lt;br&gt;3-rendű cím" style="text;strokeColor=none;fillColor=none;align=left;verticalAlign=top;spacingLeft=4;spacingRight=4;overflow=hidden;rotatable=0;points=[[0,0.5],[1,0.5]];portConstraint=eastwest;whiteSpace=wrap;html=1;" parent="afg4JcKS-O3uQv0_6ypz-91" vertex="1">
          <mxGeometry y="26" width="160" height="54" as="geometry" />
        </mxCell>
        <mxCell id="afg4JcKS-O3uQv0_6ypz-93" value="" style="line;strokeWidth=1;fillColor=none;align=left;verticalAlign=middle;spacingTop=-1;spacingLeft=3;spacingRight=3;rotatable=0;labelPosition=right;points=[];portConstraint=eastwest;strokeColor=inherit;" parent="afg4JcKS-O3uQv0_6ypz-91" vertex="1">
          <mxGeometry y="80" width="160" height="8" as="geometry" />
        </mxCell>
        <mxCell id="afg4JcKS-O3uQv0_6ypz-94" value="Jelszó" style="rounded=1;whiteSpace=wrap;html=1;" parent="1" vertex="1">
          <mxGeometry x="1220" y="50" width="120" height="60" as="geometry" />
        </mxCell>
        <mxCell id="afg4JcKS-O3uQv0_6ypz-96" value="Autentikáció" style="text;html=1;align=center;verticalAlign=middle;resizable=0;points=[];autosize=1;strokeColor=none;fillColor=none;" parent="1" vertex="1">
          <mxGeometry x="1241" y="-90" width="90" height="30" as="geometry" />
        </mxCell>
        <mxCell id="afg4JcKS-O3uQv0_6ypz-97" value="" style="rounded=1;whiteSpace=wrap;html=1;" parent="1" vertex="1">
          <mxGeometry x="955" y="1010" width="660" height="355" as="geometry" />
        </mxCell>
        <mxCell id="afg4JcKS-O3uQv0_6ypz-119" value="&lt;font style=&quot;font-size: 14px;&quot;&gt;Kártya megnyitása&lt;/font&gt;" style="text;html=1;align=center;verticalAlign=middle;resizable=0;points=[];autosize=1;strokeColor=none;fillColor=none;" parent="1" vertex="1">
          <mxGeometry x="1230" y="980" width="140" height="30" as="geometry" />
        </mxCell>
        <mxCell id="afg4JcKS-O3uQv0_6ypz-135" value="Cím" style="swimlane;fontStyle=1;align=center;verticalAlign=top;childLayout=stackLayout;horizontal=1;startSize=26;horizontalStack=0;resizeParent=1;resizeParentMax=0;resizeLast=0;collapsible=1;marginBottom=0;whiteSpace=wrap;html=1;" parent="1" vertex="1">
          <mxGeometry x="1015" y="1100" width="530" height="210" as="geometry" />
        </mxCell>
        <mxCell id="afg4JcKS-O3uQv0_6ypz-136" value="1-rendű cím&lt;br&gt;2-rendű cím&lt;br&gt;3-rendű cím" style="text;strokeColor=none;fillColor=none;align=left;verticalAlign=top;spacingLeft=4;spacingRight=4;overflow=hidden;rotatable=0;points=[[0,0.5],[1,0.5]];portConstraint=eastwest;whiteSpace=wrap;html=1;" parent="afg4JcKS-O3uQv0_6ypz-135" vertex="1">
          <mxGeometry y="26" width="530" height="54" as="geometry" />
        </mxCell>
        <mxCell id="afg4JcKS-O3uQv0_6ypz-137" value="" style="line;strokeWidth=1;fillColor=none;align=left;verticalAlign=middle;spacingTop=-1;spacingLeft=3;spacingRight=3;rotatable=0;labelPosition=right;points=[];portConstraint=eastwest;strokeColor=inherit;" parent="afg4JcKS-O3uQv0_6ypz-135" vertex="1">
          <mxGeometry y="80" width="530" height="8" as="geometry" />
        </mxCell>
        <mxCell id="afg4JcKS-O3uQv0_6ypz-138" value="Infók szabad szövegesen" style="text;strokeColor=none;fillColor=none;align=left;verticalAlign=top;spacingLeft=4;spacingRight=4;overflow=hidden;rotatable=0;points=[[0,0.5],[1,0.5]];portConstraint=eastwest;whiteSpace=wrap;html=1;" parent="afg4JcKS-O3uQv0_6ypz-135" vertex="1">
          <mxGeometry y="88" width="530" height="122" as="geometry" />
        </mxCell>
        <mxCell id="afg4JcKS-O3uQv0_6ypz-139" value="Vissza" style="rounded=0;whiteSpace=wrap;html=1;" parent="1" vertex="1">
          <mxGeometry x="1015" y="1040" width="80" height="30" as="geometry" />
        </mxCell>
        <mxCell id="afg4JcKS-O3uQv0_6ypz-140" value="Szerkeszt" style="rounded=0;whiteSpace=wrap;html=1;" parent="1" vertex="1">
          <mxGeometry x="1465" y="1040" width="80" height="30" as="geometry" />
        </mxCell>
        <mxCell id="vu-Q5U829z-oKH19Fpe--1" value="Kezdőlap" style="whiteSpace=wrap;html=1;" vertex="1" parent="1">
          <mxGeometry x="2040" y="246.5" width="120" height="40" as="geometry" />
        </mxCell>
        <mxCell id="vu-Q5U829z-oKH19Fpe--2" value="Kezdőlap" style="whiteSpace=wrap;html=1;" vertex="1" parent="1">
          <mxGeometry x="2040" y="356.5" width="120" height="40" as="geometry" />
        </mxCell>
      </root>
    </mxGraphModel>
  </diagram>
</mxfile>
